<svg id="81d7e780-10ba-4083-8fdd-893e8030c2ed" data-name="Layer 1" xmlns="http://www.w3.org/2000/svg" viewBox="0 0 896 554"><defs><style>.\32 891d055-f54f-40bd-a58e-be403ed5673f,.\38 51a3e2f-0272-45d0-b10a-49e89714423e{fill:#ff8000;}.\38 51a3e2f-0272-45d0-b10a-49e89714423e{fill-rule:evenodd;}</style></defs><title>SVG</title><path class="2891d055-f54f-40bd-a58e-be403ed5673f" d="M764.67,205c-7.51-9.2-14.84-18.55-22.49-27.64-18.64-22.17-38.08-43.63-60.46-62.35-16.46-13.78-32.8-27.75-50-40.65A358.47,358.47,0,0,0,531.17,20.93c-22.82-7.73-46.27-13-70.49-13.7a267.67,267.67,0,0,0-34.81,1.18,260,260,0,0,0-37.22,6.08c-27.42,6.94-53.25,17.83-78,31.4-37.67,20.69-71,46.92-102.2,75.81-13.46,12.47-26,25.94-38.25,39.57-12.89,14.34-25,29.38-37.25,44.22-2.89,3.48-2.57,7.25.38,10.78,3.41,4,6.66,8.22,10.13,12.21,15.54,17.86,30.73,36,46.86,53.4,10.26,11,21.75,21.06,33,31.21a301.77,301.77,0,0,0,24.54,20.46A348,348,0,0,0,339.47,381c35.43,12.2,71.94,19.2,109.77,18.91,8.68-.55,17.4-.74,26-1.74,14.43-1.66,29-2.88,43.12-6,32.48-7.18,63.15-19.2,92.35-35,30.28-16.32,57-37.13,81.78-60.41,11.83-11.12,22.94-23,33.71-35.13,13.2-14.84,25.71-30.25,38.5-45.42C767.87,212.49,767.74,208.76,764.67,205ZM361.4,170c8.84-22.24,24-39.25,45.38-51.14a84.55,84.55,0,0,1,41.52-10.93,91.43,91.43,0,0,1,31.8,5.89c30.2,11.59,49.85,33.84,59.49,63.6,9.7,29.94,6.57,59.3-9.49,87.58-8.26-8.54-16.25-17-24.49-25.26-4.31-4.3-9-8.3-13.68-12.19a7.92,7.92,0,0,0-4.71-1.41c-25.51-.09-51-.13-76.53.08-2.13,0-4.66,1.52-6.28,3.07-11.48,10.93-22.77,22.06-34.11,33.13-.69.67-1.41,1.29-2.43,2.24-7.55-13-11.71-26.73-13.7-41.41C351.67,204.68,354.61,187.06,361.4,170ZM279.49,346.82c16.72,1.42,31.93-2.83,44.3-13.22,14.83-12.47,28.46-26.33,42.33-39.87,14.83-14.48,29.28-29.32,44-43.87,1.45-1.42,3.75-2,5.64-3-.1,2,.17,4-.4,5.86-2.79,8.87-5.89,17.65-8.68,26.53-.57,1.83-.31,3.9-.43,5.86l2.47.87,24.45-36.27,1.34.35c.55,4.49,1.12,9,1.65,13.49,1.58,13.56,3.09,27.13,4.83,40.67.14,1,1.93,1.83,3,2.74.91-1,2.49-2,2.61-3.1,1-8.95,1.78-17.92,2.44-26.9.54-7.32.63-14.68,1.34-22a7.24,7.24,0,0,1,3.28-4.66c.7-.44,3.16,1,4.3,2.16,2.51,2.51,4.67,5.33,7.26,8.33,5.35-4.88.05-9.37.84-15.07,6.81,8.41,13,16.14,19.3,23.86a40.74,40.74,0,0,0,4.8,5.58c.89.76,2.69.51,4.07.72.2-1.24.94-2.73.48-3.67-3.24-6.76-6.76-13.39-10.13-20.09a8.34,8.34,0,0,1-.91-5.48,58,58,0,0,1,5.33,4.14c15.33,14.86,30.67,29.73,45.86,44.73q13.69,13.54,27,27.46c13.86,14.44,30.35,23.54,51.13,24.62C501.48,391.09,390.26,396.9,279.49,346.82ZM486.42,191.55s-12.13,9.45-13.2,30.21c0,0,5.73-17.95,19.84-25.31,0,0,5-1.63,2.69-7C495.75,189.48,492.23,184.3,486.42,191.55Zm-26.79,27.73c0-2.25.34-48.29,27.66-61.6,0,0,3.45-1.22.81-5.85,0,0-2.4-5.16-7.66-.15C480.44,151.68,455.44,168.77,459.63,219.28Zm17.44-27s2.82-2.25.35-4.33c0,0-3.69-3.11-7.75,6.57,0,0-4,10.37-3,25.23C466.68,219.72,469,198.81,477.07,192.25Zm-14.67-24.5a2.44,2.44,0,0,0,0-3.21s-2.06-2.53-4.31,1.69c0,0-9.35,16.26-4.66,51.4C453.43,217.62,452.06,183.64,462.4,167.74ZM447,218.51,451.19,139c.86-12-4.22-11.52-4.22-11.52-4.95.36-3.43,11.64-3.43,11.64Zm-6.8-.9c4.7-35.14-4.65-51.4-4.65-51.4-2.25-4.22-4.31-1.69-4.31-1.69a2.44,2.44,0,0,0,0,3.21C441.62,183.64,440.24,217.62,440.24,217.62Zm-33.85-59.94c27.33,13.31,27.66,59.35,27.66,61.6,4.18-50.52-20.81-67.61-20.81-67.61-5.26-5-7.66.15-7.66.15C402.94,156.46,406.39,157.68,406.39,157.68Zm9.87,30.24c-2.47,2.07.35,4.33.35,4.33,8.11,6.57,10.39,27.47,10.39,27.47,1.06-14.86-3-25.23-3-25.23C420,184.81,416.26,187.92,416.26,187.92Zm-15.64,8.54c14.11,7.36,19.84,25.31,19.84,25.31-1.07-20.76-13.2-30.21-13.2-30.21-5.81-7.26-9.33-2.07-9.33-2.07C395.63,194.83,400.62,196.46,400.62,196.46Z"/><path class="2891d055-f54f-40bd-a58e-be403ed5673f" d="M410.14,249.85s7.22-3.31,5.24,2.85-12.54,32.84-9.07,35.54,9.35-12.54,15.19-21.21l5.84-8.67s6.8-11.46,7.61-4.94,5.56,46.83,5.56,46.83,1.44,16.15,6.06,3.59.17-57.34,7.7-52.21,9.79,13.36,12,9.12,1.39-5.52,0-10.64.59-3.37,3.6.36,29.57,42.23,24.81,21.74-14.1-27.39-7.18-22.7,18.83,6,18.83,6l-8.81-19.84-11.91-2.88H465.68l-11.1,7.52S414.81,238.15,410.14,249.85Z"/><path class="851a3e2f-0272-45d0-b10a-49e89714423e" d="M19.66,434.72A21.54,21.54,0,0,0,5.37,446.36c-.8,1.81-1.65,3.72-1.91,4.2-.64,1.28-.58,23.59,0,24.76.32.48,1.12,2.28,1.86,3.93A21.27,21.27,0,0,0,15.63,489.4l3.56,1.7,29.12.16,29.07.16v15.36H5.64v20.72H42.73c41.29,0,40.75.05,46.17-3.56a22,22,0,0,0,8.18-10.1c1-2.6,1.17-4.52,1.38-12.11.32-10.41-.27-15.73-2.18-19.61a24.47,24.47,0,0,0-9.78-9.67l-3-1.54-29.65-.16-29.65-.16.16-7.81L24.5,455l36.29-.16L97,454.7V434l-37.3.05C31.94,434,21.68,434.24,19.66,434.72Z"/><path class="851a3e2f-0272-45d0-b10a-49e89714423e" d="M328.49,437c.74,1.7,10.1,22.74,20.78,46.76l19.39,43.73h26.25l20.56-46.39C426.79,455.66,436,434.61,436,434.35s-5.84-.37-13-.37H410.16l-1.12,2.5c-.58,1.43-4.68,10.79-9.14,20.88s-10.2,23.11-12.81,29-4.94,10.63-5.31,10.63-1.65-2.28-2.87-5c-11.9-27-16.53-37.46-20.67-46.76l-4.84-10.89-13.18-.16L327.11,434Z"/><polygon class="851a3e2f-0272-45d0-b10a-49e89714423e" points="532.74 480.74 532.74 527.5 543.26 527.39 553.73 527.23 553.73 480.74 553.73 434.24 543.26 434.08 532.74 433.98 532.74 480.74"/><path class="851a3e2f-0272-45d0-b10a-49e89714423e" d="M110.31,504.12V553H131V527.49H148.2c18.6,0,21.2-.32,25.35-2.92a22.26,22.26,0,0,0,7.81-8.66l1.49-3v-43l-1.49-3A24.68,24.68,0,0,0,171,456.93L168,455.5l-28.8-.16-28.85-.16Zm52-12.59.11,15.25-15.52-.11-15.57-.16-.16-14.61c-.05-8,0-14.88.16-15.3s3.51-.64,15.52-.53l15.3.16Z"/><path class="851a3e2f-0272-45d0-b10a-49e89714423e" d="M195.33,483.76l.27,28.59,1.54,3.19a22.36,22.36,0,0,0,10.31,10l3.56,1.7,18.23.16,18.17.16v4.2H199.58V553H225c16.42,0,25.61-.21,25.82-.53a1.48,1.48,0,0,1,1.22-.53c1.86,0,6.59-2.71,9.3-5.26a21,21,0,0,0,6.22-11.16c.32-1.75.53-17.59.53-41.55V455.23H247.4v51.54H216.05V455.23h-21Z"/><path class="851a3e2f-0272-45d0-b10a-49e89714423e" d="M463.82,455.76c-5.47,1.12-11.26,5.9-13.76,11.32l-1.54,3.29-.16,20.14c-.16,19.29-.11,20.24,1,23.49a23.15,23.15,0,0,0,8.61,10.63c4.25,2.71,6.7,2.92,28.16,2.76l19.82-.16,3.45-1.65a22.12,22.12,0,0,0,10-9.72l1.43-3,.16-20.09c.16-21.79,0-23.54-2.76-27.95a25.35,25.35,0,0,0-9.25-7.92l-3-1.43L486,455.39C475,455.34,465,455.5,463.82,455.76Zm36.4,35.71.11,15.3H469v-15c0-8.29.16-15.25.37-15.41s7.17-.32,15.52-.27l15.2.16Z"/><path class="851a3e2f-0272-45d0-b10a-49e89714423e" d="M581.09,456.08a19.24,19.24,0,0,0-9.67,6,20.86,20.86,0,0,0-5.74,11.64c-.69,4.73-.64,30.71,0,35.49a29.6,29.6,0,0,0,1.86,6.43c1.7,3.51,6.85,8.34,10.73,10.2l3.08,1.43,28.59.16,28.53.16V506.77H586.41V476h52.07V455.23l-27.21.05C589,455.28,583.49,455.44,581.09,456.08Z"/><path class="851a3e2f-0272-45d0-b10a-49e89714423e" d="M650.17,465.59V476h52.07v5.31H650.17v13.66c0,14.88.43,18,2.82,22.05a25.47,25.47,0,0,0,9.83,8.82l3,1.43h41.45l3.51-1.7A23.61,23.61,0,0,0,721.16,515c2.07-4.52,2.44-9.09,2.23-26.83-.21-15.3-.27-16.37-1.43-19.29a22.86,22.86,0,0,0-8.29-10.26c-5.26-3.35-6-3.4-36.24-3.4H650.17Zm52.07,38.79v2.39l-15.52-.11-15.57-.16L671,505c-.37-3.13-1-3,15.83-3h15.41Z"/><path class="851a3e2f-0272-45d0-b10a-49e89714423e" d="M750.6,456.08a26.21,26.21,0,0,0-5.1,2.07,29.05,29.05,0,0,0-8.77,9.67l-1.28,2.55L735.19,499l-.27,28.53h21V476h31.35v51.54H808v-27c0-25.45-.05-27.26-1.06-30.39a23,23,0,0,0-12.75-13.6C790.77,455.12,755.11,454.81,750.6,456.08Z"/><path class="851a3e2f-0272-45d0-b10a-49e89714423e" d="M836.41,455.6c-6.11,1.43-10.36,4.3-13.5,9.19s-3.35,6.7-3.13,28.43l.16,19.13,1.7,3.51a21.89,21.89,0,0,0,10.15,9.94l3,1.43h43l3.19-1.54a22.62,22.62,0,0,0,9.78-9.94c.69-1.54,1.43-3.29,1.7-3.77s.48-9.78.48-20.62-.21-20.09-.48-20.62-1-2.18-1.7-3.72a21.11,21.11,0,0,0-9.88-9.83l-3.61-1.7-19.93-.11C846.45,455.34,837,455.44,836.41,455.6Zm35.34,35.76v15.41l-15.52-.11-15.57-.16-.16-14.61c-.05-8,0-14.88.16-15.25.16-.53,3.72-.69,15.67-.69h15.41Z"/></svg>